<svg width="25" height="24" viewBox="0 0 25 24" fill="none" xmlns="http://www.w3.org/2000/svg">
<path d="M13.4004 3.5C13.5154 3.50294 13.6265 3.54518 13.7139 3.62012C13.8011 3.69501 13.8595 3.79799 13.8799 3.91113L16.3184 17.4648L16.4648 18.2812L16.7939 17.5205L18.6855 13.1436V13.1426C18.7242 13.053 18.7886 12.9765 18.8701 12.9229C18.9516 12.8693 19.0471 12.8409 19.1445 12.8408H22.0234C22.1559 12.8409 22.2833 12.8936 22.377 12.9873C22.4706 13.081 22.5234 13.2083 22.5234 13.3408C22.5234 13.4733 22.4705 13.6006 22.377 13.6943C22.2833 13.788 22.1559 13.8407 22.0234 13.8408H19.4736L19.4082 13.9922L16.7256 20.1992C16.683 20.2978 16.6096 20.3798 16.5166 20.4336C16.4236 20.4874 16.3157 20.5104 16.209 20.498C16.1022 20.4857 16.0021 20.4389 15.9238 20.3652C15.8651 20.31 15.8213 20.2414 15.7949 20.166L15.7744 20.0889L13.5361 7.64844L13.0469 7.63574L10.9961 16.3652C10.9727 16.4642 10.9193 16.554 10.8438 16.6221C10.7681 16.6902 10.6732 16.7332 10.5723 16.7461C10.4714 16.7589 10.3686 16.7412 10.2783 16.6943C10.1883 16.6475 10.1149 16.5741 10.0674 16.4844L7.0498 10.7744L6.82422 10.3467L6.60547 10.7783L5.19824 13.5664C5.15658 13.6489 5.09238 13.7181 5.01367 13.7666C4.93481 13.8151 4.84356 13.8409 4.75098 13.8408H1.87402C1.74141 13.8408 1.61428 13.7881 1.52051 13.6943C1.4268 13.6006 1.37402 13.4734 1.37402 13.3408C1.37407 13.2083 1.42678 13.081 1.52051 12.9873C1.61427 12.8936 1.74146 12.8408 1.87402 12.8408H4.44336L4.5127 12.7041L6.36719 9.03223C6.40853 8.95041 6.47195 8.88141 6.5498 8.83301C6.62769 8.78464 6.71788 8.75864 6.80957 8.75781C6.90119 8.75707 6.99164 8.78115 7.07031 8.82812C7.14902 8.87514 7.21306 8.94334 7.25586 9.02441L10.0156 14.248L10.3281 14.8379L10.4805 14.1885L12.9004 3.88672C12.9267 3.77479 12.991 3.67468 13.082 3.60449C13.1509 3.55148 13.2314 3.51732 13.3154 3.50488L13.4004 3.5Z" fill="#575757" stroke="#575757" stroke-width="0.5"/>
</svg>
