<svg width="22" height="22" viewBox="0 0 22 22" fill="none" xmlns="http://www.w3.org/2000/svg">
<path d="M10.9997 20.1668C16.0623 20.1668 20.1663 16.0628 20.1663 11.0002C20.1663 5.93755 16.0623 1.8335 10.9997 1.8335C5.93706 1.8335 1.83301 5.93755 1.83301 11.0002C1.83301 16.0628 5.93706 20.1668 10.9997 20.1668Z" stroke="#575757"/>
<path d="M11 5.5V16.5M13.75 8.70833C13.75 7.44333 12.5189 6.41667 11 6.41667C9.48108 6.41667 8.25 7.44333 8.25 8.70833C8.25 9.97333 9.48108 11 11 11C12.5189 11 13.75 12.0267 13.75 13.2917C13.75 14.5567 12.5189 15.5833 11 15.5833C9.48108 15.5833 8.25 14.5567 8.25 13.2917" stroke="#575757" stroke-linecap="round"/>
</svg>
