<svg width="15" height="15" viewBox="0 0 15 15" fill="none" xmlns="http://www.w3.org/2000/svg">
<path d="M9.375 7.5C9.375 7.99728 9.17746 8.47419 8.82583 8.82583C8.47419 9.17746 7.99728 9.375 7.5 9.375C7.00272 9.375 6.52581 9.17746 6.17417 8.82583C5.82254 8.47419 5.625 7.99728 5.625 7.5C5.625 7.00272 5.82254 6.52581 6.17417 6.17417C6.52581 5.82254 7.00272 5.625 7.5 5.625C7.99728 5.625 8.47419 5.82254 8.82583 6.17417C9.17746 6.52581 9.375 7.00272 9.375 7.5Z" stroke="#64748B" stroke-width="1.5" stroke-linecap="round" stroke-linejoin="round"/>
<path d="M1.25 7.5C2.25 4.93937 4.585 3.125 7.5 3.125C10.415 3.125 12.75 4.93937 13.75 7.5C12.75 10.0606 10.415 11.875 7.5 11.875C4.585 11.875 2.25 10.0606 1.25 7.5Z" stroke="#64748B" stroke-width="1.5" stroke-linecap="round" stroke-linejoin="round"/>
</svg>
