<svg width="21" height="24" viewBox="0 0 21 24" fill="none" xmlns="http://www.w3.org/2000/svg">
<path d="M2 20.7V9.40071C2 9.06792 2.06962 8.7529 2.20886 8.45564C2.3481 8.15838 2.53995 7.91355 2.78443 7.72116L9.32336 2.41989C9.66579 2.13996 10.0568 2 10.4964 2C10.9359 2 11.3294 2.13996 11.6766 2.41989L18.2156 7.71986C18.4609 7.91225 18.6527 8.15751 18.7911 8.45564C18.9304 8.7529 19 9.06792 19 9.40071V20.7C19 21.0484 18.879 21.3522 18.6369 21.6113C18.3949 21.8704 18.1111 22 17.7857 22H13.6766C13.3981 22 13.165 21.8995 12.9771 21.6984C12.7893 21.4965 12.6954 21.2469 12.6954 20.9496V14.7501C12.6954 14.4528 12.6015 14.2037 12.4137 14.0026C12.2251 13.8007 11.992 13.6997 11.7143 13.6997H9.28571C9.00805 13.6997 8.77531 13.8007 8.5875 14.0026C8.39888 14.2037 8.30457 14.4528 8.30457 14.7501V20.9509C8.30457 21.2482 8.21067 21.4973 8.02286 21.6984C7.83505 21.8995 7.60231 22 7.32464 22H3.21429C2.88886 22 2.60512 21.8704 2.36307 21.6113C2.12102 21.3522 2 21.0484 2 20.7Z" fill="white"/>
</svg>
