<svg width="24" height="24" viewBox="0 0 24 24" fill="none" xmlns="http://www.w3.org/2000/svg">
<path d="M7 6.2V17.8C7 18.92 7 19.48 7.218 19.907C7.41 20.284 7.715 20.59 8.092 20.782C8.519 21 9.079 21 10.197 21H13.803C14.921 21 15.48 21 15.907 20.782C16.2838 20.5902 16.5902 20.2838 16.782 19.907C17 19.48 17 18.921 17 17.803V6.197C17 5.079 17 4.519 16.782 4.092C16.59 3.71554 16.2837 3.40957 15.907 3.218C15.48 3 14.92 3 13.8 3H10.2C9.08 3 8.52 3 8.092 3.218C7.71569 3.40974 7.40974 3.71569 7.218 4.092C7 4.52 7 5.08 7 6.2Z" stroke="#575757" stroke-linecap="round" stroke-linejoin="round"/>
</svg>
