<svg width="24" height="24" viewBox="0 0 24 24" fill="none" xmlns="http://www.w3.org/2000/svg">
<path d="M3.3997 4.42095C3.273 4.55351 3.17248 4.71098 3.10389 4.88433C3.0353 5.05768 3 5.2435 3 5.43118C3 5.61885 3.0353 5.80468 3.10389 5.97802C3.17248 6.15137 3.273 6.30884 3.3997 6.4414L8.70275 12.0012L3.3997 17.5611C3.14415 17.829 3.00058 18.1924 3.00058 18.5713C3.00058 18.9502 3.14415 19.3136 3.3997 19.5816C3.65526 19.8495 4.00186 20 4.36327 20C4.72468 20 5.07129 19.8495 5.32684 19.5816L11.6003 13.0043C11.727 12.8717 11.8275 12.7143 11.8961 12.5409C11.9647 12.3676 12 12.1818 12 11.9941C12 11.8064 11.9647 11.6206 11.8961 11.4472C11.8275 11.2739 11.727 11.1164 11.6003 10.9839L5.32684 4.40662C4.80747 3.8621 3.93274 3.8621 3.3997 4.42095Z" fill="white" fill-opacity="0.5"/>
<path d="M12.3997 4.42095C12.273 4.55351 12.1725 4.71098 12.1039 4.88433C12.0353 5.05768 12 5.2435 12 5.43118C12 5.61885 12.0353 5.80468 12.1039 5.97802C12.1725 6.15137 12.273 6.30884 12.3997 6.4414L17.7028 12.0012L12.3997 17.5611C12.1441 17.829 12.0006 18.1924 12.0006 18.5713C12.0006 18.9502 12.1441 19.3136 12.3997 19.5816C12.6553 19.8495 13.0019 20 13.3633 20C13.7247 20 14.0713 19.8495 14.3268 19.5816L20.6003 13.0043C20.727 12.8717 20.8275 12.7143 20.8961 12.5409C20.9647 12.3676 21 12.1818 21 11.9941C21 11.8064 20.9647 11.6206 20.8961 11.4472C20.8275 11.2739 20.727 11.1164 20.6003 10.9839L14.3268 4.40662C13.8075 3.8621 12.9327 3.8621 12.3997 4.42095Z" fill="white"/>
</svg>
