<svg width="20" height="20" viewBox="0 0 20 20" fill="none" xmlns="http://www.w3.org/2000/svg">
<path d="M7.80583 1.875H9.58333C9.74909 1.875 9.90806 1.94085 10.0253 2.05806C10.1425 2.17527 10.2083 2.33424 10.2083 2.5C10.2083 2.66576 10.1425 2.82473 10.0253 2.94194C9.90806 3.05915 9.74909 3.125 9.58333 3.125H7.83333C6.89 3.125 6.21917 3.125 5.695 3.16833C5.17833 3.21 4.8575 3.29083 4.60333 3.42C4.09386 3.67963 3.67963 4.09386 3.42 4.60333C3.29083 4.8575 3.21083 5.17833 3.16833 5.695C3.12583 6.22 3.125 6.89 3.125 7.83333V12.1667C3.125 13.1108 3.125 13.7808 3.16833 14.305C3.21 14.8217 3.29083 15.1425 3.42 15.3967C3.67963 15.9061 4.09386 16.3204 4.60333 16.58C4.8575 16.7092 5.17833 16.7892 5.695 16.8317C6.22 16.8742 6.89 16.875 7.83333 16.875H12.1667C13.1108 16.875 13.7808 16.875 14.305 16.8317C14.8217 16.79 15.1425 16.7092 15.3967 16.58C15.9061 16.3204 16.3204 15.9061 16.58 15.3967C16.7092 15.1425 16.7892 14.8217 16.8317 14.305C16.8742 13.78 16.875 13.11 16.875 12.1667V10.4167C16.875 10.2509 16.9408 10.0919 17.0581 9.97472C17.1753 9.85751 17.3342 9.79167 17.5 9.79167C17.6658 9.79167 17.8247 9.85751 17.9419 9.97472C18.0592 10.0919 18.125 10.2509 18.125 10.4167V12.1942C18.125 13.1042 18.125 13.8258 18.0775 14.4067C18.0292 15.0017 17.9275 15.5042 17.6942 15.9642C17.3145 16.7087 16.7089 17.314 15.9642 17.6933C15.5042 17.9275 15.0017 18.0292 14.4067 18.0775C13.8258 18.125 13.1042 18.125 12.1942 18.125H7.80583C6.89583 18.125 6.17417 18.125 5.59333 18.0775C4.99833 18.0292 4.49583 17.9275 4.03667 17.6942C3.29178 17.3147 2.68618 16.7091 2.30667 15.9642C2.0725 15.5042 1.97083 15.0017 1.9225 14.4067C1.875 13.8258 1.875 13.1042 1.875 12.1942V7.80583C1.875 6.89583 1.875 6.17417 1.9225 5.59333C1.97083 4.99833 2.0725 4.49583 2.30583 4.03667C2.68556 3.29166 3.29147 2.68604 4.03667 2.30667C4.495 2.0725 4.99833 1.97083 5.59333 1.9225C6.17417 1.875 6.89583 1.875 7.80583 1.875ZM12.2917 4.79167C12.2917 4.40864 12.3671 4.02937 12.5137 3.67551C12.6603 3.32164 12.8751 3.00011 13.1459 2.72927C13.4168 2.45843 13.7383 2.24359 14.0922 2.09702C14.446 1.95044 14.8253 1.875 15.2083 1.875C15.5914 1.875 15.9706 1.95044 16.3245 2.09702C16.6784 2.24359 16.9999 2.45843 17.2707 2.72927C17.5416 3.00011 17.7564 3.32164 17.903 3.67551C18.0496 4.02937 18.125 4.40864 18.125 4.79167C18.125 5.56521 17.8177 6.30708 17.2707 6.85406C16.7237 7.40104 15.9819 7.70833 15.2083 7.70833C14.4348 7.70833 13.6929 7.40104 13.1459 6.85406C12.599 6.30708 12.2917 5.56521 12.2917 4.79167Z" fill="#575757"/>
</svg>
