<svg width="15" height="15" viewBox="0 0 15 15" fill="none" xmlns="http://www.w3.org/2000/svg">
<path d="M4.16695 14.2298H10.8339C12.1336 14.2298 12.7802 13.5706 12.7802 12.2648V6.56457C12.7802 5.75457 12.6923 5.40314 12.1901 4.88832L8.72454 1.36654C8.24776 0.876627 7.85829 0.77002 7.14901 0.77002H4.16695C2.87374 0.77002 2.2207 1.43538 2.2207 2.74145V12.2648C2.2207 13.5768 2.87374 14.2298 4.16695 14.2298ZM4.21704 13.2192C3.57044 13.2192 3.23133 12.8737 3.23133 12.2461V2.7602C3.23133 2.13877 3.57044 1.78064 4.22347 1.78064H7.01079V5.42832C7.01079 6.21931 7.41258 6.6085 8.19097 6.6085H11.7695V12.2461C11.7695 12.8737 11.4366 13.2192 10.7838 13.2192H4.21704ZM8.30401 5.66029C8.05919 5.66029 7.95847 5.56011 7.95847 5.30886V1.97538L11.5745 5.66055L8.30401 5.66029Z" fill="#64748B"/>
</svg>
